<svg xmlns="http://www.w3.org/2000/svg" viewBox="0 0 174.24 111.5"><defs><style>.cls-1{fill:none;stroke:#000;stroke-miterlimit:10;stroke-width:6px;}</style></defs><title>boop_1</title><g id="Camada_2" data-name="Camada 2"><g id="Camada_1-2" data-name="Camada 1"><path class="cls-1" d="M3,0V69H34s1.65-19,0-25c-.56-2-3.56-6-5.66-6.3-3.5-.5-15.28-1.11-19.67,0C5.5,38.5,3,44,3,44Z"/><path class="cls-1" d="M139.5,111.5v-69h31s1.65,19,0,25c-.56,2-3.56,6-5.66,6.3-3.5.5-15.28,1.11-19.67,0-3.17-.8-5.67-6.3-5.67-6.3Z"/><path class="cls-1" d="M86.5,58.5S90,40.8,81,39c-7.5-1.5-31.24-2-32,0-2.5,6.5-2.5,29.5,0,31s32,0,32,0l5,5.5L91,70s30.5,1.5,33,0c1.82-1.09,3.5-30.5,0-31-7.44-1.06-32,0-32,0"/><polyline class="cls-1" points="82.5 52.5 86.5 58.5 90.5 52.5"/></g></g></svg>